<?xml version="1.0" encoding="UTF-8" ?>
<!DOCTYPE svg PUBLIC "-//W3C//DTD SVG 1.1//EN" "http://www.w3.org/Graphics/SVG/1.1/DTD/svg11.dtd">
<svg width="1312pt" height="651pt" viewBox="0 0 1312 651" version="1.1" xmlns="http://www.w3.org/2000/svg">
<path fill="#ffffff" d=" M 0.00 0.00 L 1312.00 0.00 L 1312.00 651.00 L 0.00 651.00 L 0.00 0.00 Z" />
<path fill="#1d2636" d=" M 8.00 8.00 C 32.00 8.00 56.00 8.00 80.00 8.00 C 80.00 32.00 80.00 56.00 80.00 80.00 C 56.00 80.00 32.00 80.00 8.00 80.00 C 8.00 56.00 8.00 32.00 8.00 8.00 Z" />
<path fill="#1d2636" d=" M 88.00 8.00 C 112.00 8.00 136.00 8.00 160.00 8.00 C 160.00 32.00 160.00 56.00 160.00 80.00 C 136.00 80.00 112.00 80.00 88.00 80.00 C 88.00 56.00 88.00 32.00 88.00 8.00 Z" />
<path fill="#1d2636" d=" M 168.00 8.00 C 192.00 8.00 216.00 8.00 240.00 8.00 C 240.00 32.00 240.00 56.00 240.00 80.00 C 216.00 80.00 192.00 80.00 168.00 80.00 C 168.00 56.00 168.00 32.00 168.00 8.00 Z" />
<path fill="#1d2636" d=" M 328.00 8.00 C 352.00 8.00 376.01 8.00 400.01 8.00 C 400.01 32.00 400.03 56.00 400.00 80.00 C 376.00 80.00 352.00 80.00 328.00 80.00 C 328.00 56.00 328.00 32.00 328.00 8.00 Z" />
<path fill="#a7be2a" d=" M 488.00 8.01 C 512.00 7.99 536.00 8.00 560.00 8.01 C 560.00 32.00 560.00 56.00 560.00 80.00 C 536.00 80.00 512.00 80.00 488.01 80.00 C 487.99 56.00 488.00 32.01 488.00 8.01 Z" />
<path fill="#a7be2a" d=" M 728.00 8.00 C 752.00 8.00 776.00 8.00 799.99 8.00 C 800.01 32.00 800.00 55.99 800.00 79.99 C 776.00 80.01 752.00 79.99 728.01 80.00 C 727.99 56.00 728.00 32.00 728.00 8.00 Z" />
<path fill="#a7be2a" d=" M 808.00 8.00 C 832.00 8.00 856.00 7.99 880.00 8.01 C 879.99 32.01 880.01 56.00 879.99 80.00 C 856.00 80.00 832.00 80.00 808.01 80.00 C 807.99 56.00 808.00 32.00 808.00 8.00 Z" />
<path fill="#a7be2a" d=" M 888.00 8.01 C 912.04 8.00 936.07 8.00 960.11 8.01 C 960.05 32.00 960.16 56.00 960.03 79.99 C 936.02 80.01 912.02 79.99 888.01 80.00 C 887.99 56.00 888.00 32.01 888.00 8.01 Z" />
<path fill="#a7be2a" d=" M 1040.00 8.00 C 1064.00 8.00 1088.00 7.99 1112.00 8.01 C 1112.00 32.00 1112.00 56.00 1112.00 79.99 C 1088.00 80.00 1064.00 80.01 1040.00 79.99 C 1040.00 55.99 1040.00 32.00 1040.00 8.00 Z" />
<path fill="#1d2636" d=" M 168.00 88.00 C 192.00 88.00 216.00 88.00 240.00 88.00 C 240.00 112.00 240.00 136.00 240.00 160.00 C 216.00 160.00 192.00 160.00 168.00 160.00 C 168.00 136.00 168.00 112.00 168.00 88.00 Z" />
<path fill="#a7be2a" d=" M 488.00 88.01 C 512.00 87.99 536.00 88.00 560.00 88.01 C 560.00 112.00 560.00 136.00 560.00 160.00 C 536.00 160.00 512.00 160.01 488.00 160.00 C 488.00 136.00 488.00 112.00 488.00 88.01 Z" />
<path fill="#a7be2a" d=" M 888.00 88.01 C 912.03 88.00 936.07 87.99 960.10 88.01 C 960.04 112.01 960.19 136.00 959.99 160.00 C 936.00 160.00 912.00 160.00 888.01 160.00 C 888.00 136.00 888.00 112.00 888.00 88.01 Z" />
<path fill="#a7be2a" d=" M 1040.00 88.00 C 1064.00 88.00 1088.00 87.99 1112.00 88.00 C 1112.00 112.00 1112.01 136.00 1111.99 160.00 C 1088.00 159.99 1064.00 160.01 1040.00 159.99 C 1040.00 136.00 1039.99 112.00 1040.00 88.00 Z" />
<path fill="#1d2636" d=" M 8.00 168.00 C 32.00 168.00 56.00 168.00 80.00 168.00 C 80.00 192.00 80.00 216.00 80.00 240.00 C 56.00 240.00 32.00 240.00 8.00 240.00 C 8.00 216.00 8.00 192.00 8.00 168.00 Z" />
<path fill="#1d2636" d=" M 88.00 168.00 C 112.00 168.00 136.00 168.00 160.00 168.00 C 160.00 192.00 160.00 216.00 160.00 240.00 C 136.00 240.00 112.00 240.00 88.00 240.00 C 88.00 216.00 88.00 192.00 88.00 168.00 Z" />
<path fill="#1d2636" d=" M 168.00 168.00 C 192.00 168.00 216.00 168.00 240.00 168.00 C 240.00 192.00 240.00 216.00 240.00 240.00 C 216.00 240.00 192.00 240.00 168.00 240.00 C 168.00 216.00 168.00 192.00 168.00 168.00 Z" />
<path fill="#1d2636" d=" M 248.00 168.00 C 272.00 168.00 296.00 168.00 320.00 168.00 C 320.00 192.00 320.00 216.00 320.00 240.00 C 296.00 240.00 272.00 240.00 248.00 240.00 C 248.00 216.00 248.00 192.00 248.00 168.00 Z" />
<path fill="#1d2636" d=" M 328.00 168.00 C 352.00 168.00 376.01 168.00 400.01 168.00 C 400.01 192.00 400.03 216.00 400.00 240.00 C 376.00 240.00 352.00 240.00 328.00 240.00 C 328.00 216.00 328.00 192.00 328.00 168.00 Z" />
<path fill="#a7be2a" d=" M 488.01 168.00 C 512.00 168.00 536.00 168.00 559.99 168.00 C 560.01 192.00 560.00 216.00 560.00 240.00 C 536.00 240.00 512.01 240.00 488.01 240.00 C 487.99 216.00 488.00 192.00 488.01 168.00 Z" />
<path fill="#a7be2a" d=" M 728.00 168.00 C 752.00 168.00 776.00 168.00 799.99 168.00 C 800.01 192.00 800.00 216.00 800.00 239.99 C 776.00 240.01 752.00 240.00 728.00 240.00 C 728.00 216.00 728.00 192.00 728.00 168.00 Z" />
<path fill="#a7be2a" d=" M 808.00 168.01 C 832.00 168.00 856.00 167.99 880.00 168.01 C 880.00 192.01 880.00 216.00 880.00 240.00 C 856.00 240.00 832.00 240.00 808.00 240.00 C 807.99 216.00 808.00 192.00 808.00 168.01 Z" />
<path fill="#a7be2a" d=" M 888.00 168.01 C 912.03 167.99 936.06 168.00 960.09 168.01 C 960.06 192.00 960.17 215.99 960.00 239.99 C 936.00 240.02 912.00 239.99 888.01 240.00 C 887.99 216.00 888.00 192.01 888.00 168.01 Z" />
<path fill="#a7be2a" d=" M 1040.01 168.00 C 1064.00 168.01 1088.00 167.99 1112.00 168.01 C 1112.00 192.00 1112.01 216.00 1111.99 240.00 C 1087.99 240.00 1063.99 240.00 1040.00 240.00 C 1040.00 216.00 1039.99 192.00 1040.01 168.00 Z" />
<path fill="#a7be2a" d=" M 1120.00 168.00 C 1144.00 168.01 1168.00 167.99 1192.00 168.01 C 1192.00 192.01 1192.00 216.00 1191.99 240.00 C 1168.00 240.01 1144.00 240.00 1120.00 240.00 C 1120.00 216.00 1119.99 192.00 1120.00 168.00 Z" />
<path fill="#a7be2a" d=" M 1200.00 168.00 C 1224.00 168.00 1248.00 168.00 1272.00 168.00 C 1272.00 192.00 1272.01 216.00 1272.00 239.99 C 1248.00 240.01 1224.00 240.00 1200.00 239.99 C 1200.00 216.00 1200.00 192.00 1200.00 168.00 Z" />
<path fill="#1d2636" d=" M 8.00 248.00 C 32.00 248.00 56.00 248.00 80.00 248.00 C 80.00 272.00 80.00 296.00 80.00 320.00 C 56.00 320.00 32.00 320.00 8.00 320.00 C 8.00 296.00 8.00 272.00 8.00 248.00 Z" />
<path fill="#1d2636" d=" M 168.00 248.00 C 192.00 248.00 216.00 248.00 240.00 248.00 C 240.00 272.00 240.00 296.00 240.00 320.00 C 216.00 320.00 192.00 320.00 168.00 320.00 C 168.00 296.00 168.00 272.00 168.00 248.00 Z" />
<path fill="#1d2636" d=" M 328.00 248.00 C 352.01 248.00 376.01 248.00 400.02 248.00 C 400.01 272.00 400.02 296.00 400.01 320.00 C 376.00 320.00 352.00 320.00 328.00 320.00 C 328.00 296.00 328.00 272.00 328.00 248.00 Z" />
<path fill="#a7be2a" d=" M 488.00 248.00 C 512.00 248.01 536.00 247.99 560.00 248.01 C 559.99 272.00 560.01 296.00 559.99 320.00 C 535.99 320.00 512.00 320.00 488.01 320.00 C 487.99 296.00 488.00 272.00 488.00 248.00 Z" />
<path fill="#a7be2a" d=" M 728.01 248.00 C 752.00 248.00 776.00 248.00 799.99 248.00 C 800.01 272.00 800.00 296.00 799.99 320.00 C 775.99 319.99 752.00 320.01 728.00 319.99 C 728.01 296.00 727.99 272.00 728.01 248.00 Z" />
<path fill="#a7be2a" d=" M 888.00 248.00 C 912.04 248.00 936.07 247.99 960.10 248.00 C 960.05 272.00 960.18 296.00 960.01 320.00 C 936.01 320.00 912.01 320.00 888.01 320.00 C 887.99 296.00 888.00 272.00 888.00 248.00 Z" />
<path fill="#a7be2a" d=" M 1040.00 248.00 C 1064.00 248.00 1088.00 247.99 1112.00 248.01 C 1112.00 272.00 1112.01 296.00 1112.00 320.00 C 1088.00 320.00 1064.00 320.00 1040.01 320.00 C 1040.00 296.00 1039.99 272.00 1040.00 248.00 Z" />
<path fill="#a7be2a" d=" M 1200.00 248.01 C 1224.00 247.99 1247.99 248.01 1271.99 248.00 C 1272.01 271.99 1271.99 295.99 1272.00 319.99 C 1248.00 320.01 1224.00 320.00 1200.00 319.99 C 1200.00 296.00 1200.00 272.00 1200.00 248.01 Z" />
<path fill="#1d2636" d=" M 88.00 328.00 C 112.00 328.00 136.00 328.00 160.00 328.00 C 160.00 352.00 160.00 376.00 160.00 400.00 C 136.00 400.00 112.00 400.00 88.00 400.00 C 88.00 376.00 88.00 352.00 88.00 328.00 Z" />
<path fill="#1d2636" d=" M 168.00 328.00 C 192.00 328.00 216.00 328.00 240.00 328.00 C 240.00 352.00 240.00 376.00 240.00 400.00 C 216.00 400.00 192.00 400.00 168.00 400.00 C 168.00 376.00 168.00 352.00 168.00 328.00 Z" />
<path fill="#1d2636" d=" M 328.00 328.00 C 352.00 328.00 376.01 328.00 400.01 328.00 C 400.01 352.00 400.03 376.00 400.00 400.00 C 376.00 400.00 352.00 400.00 328.00 400.00 C 328.00 376.00 328.00 352.00 328.00 328.00 Z" />
<path fill="#a7be2a" d=" M 488.00 328.01 C 512.00 327.99 536.00 328.00 560.00 328.01 C 559.99 352.00 560.00 376.00 560.00 400.00 C 536.00 400.01 512.01 399.99 488.01 400.00 C 487.98 376.00 488.01 352.01 488.00 328.01 Z" />
<path fill="#a7be2a" d=" M 568.00 328.00 C 592.04 328.00 616.07 328.00 640.11 328.00 C 640.09 352.00 640.24 376.00 640.00 400.00 C 616.00 400.00 592.00 400.00 568.00 400.00 C 568.00 376.00 568.00 352.00 568.00 328.00 Z" />
<path fill="#a7be2a" d=" M 728.00 328.01 C 752.00 327.99 776.00 328.00 800.00 328.01 C 800.00 352.00 800.00 376.00 800.00 399.99 C 776.00 400.01 752.00 399.99 728.01 400.00 C 727.99 376.00 728.00 352.00 728.00 328.01 Z" />
<path fill="#a7be2a" d=" M 808.00 328.01 C 832.00 328.00 856.00 327.99 880.00 328.01 C 880.00 352.01 880.00 376.00 880.00 400.00 C 856.00 400.00 832.00 400.00 808.00 399.99 C 807.99 376.00 808.00 352.00 808.00 328.01 Z" />
<path fill="#a7be2a" d=" M 888.00 328.00 C 912.03 328.00 936.05 327.99 960.08 328.01 C 960.06 352.01 960.19 376.00 959.99 400.00 C 936.00 400.00 912.00 400.00 888.00 400.00 C 888.00 376.00 887.99 352.00 888.00 328.00 Z" />
<path fill="#a7be2a" d=" M 1040.00 327.99 C 1064.00 328.01 1088.00 327.99 1112.00 328.01 C 1112.00 352.00 1112.00 376.00 1112.00 399.99 C 1088.00 400.01 1064.00 400.00 1040.01 400.00 C 1039.99 376.00 1040.01 352.00 1040.00 327.99 Z" />
<path fill="#a7be2a" d=" M 1120.00 328.00 C 1144.00 328.00 1168.00 327.99 1192.00 328.01 C 1192.00 352.00 1191.99 376.00 1192.00 399.99 C 1168.00 400.01 1144.00 400.00 1120.00 400.00 C 1120.00 376.00 1119.99 352.00 1120.00 328.00 Z" />
<path fill="#a7be2a" d=" M 1200.01 328.00 C 1224.00 328.01 1248.00 327.99 1272.00 328.01 C 1272.00 352.00 1272.00 376.00 1272.00 399.99 C 1248.00 400.00 1224.00 400.00 1200.01 399.99 C 1200.00 376.00 1199.99 352.00 1200.01 328.00 Z" />
<path fill="#1d2636" d=" M 8.00 456.00 C 10.67 455.99 13.33 456.00 16.00 456.00 C 16.00 458.66 16.00 461.33 16.00 464.00 C 18.67 463.99 21.33 464.00 24.00 464.00 C 24.00 466.66 24.00 469.33 24.00 472.00 C 21.33 471.99 18.67 472.00 16.00 472.00 C 15.99 488.00 16.00 504.00 16.00 520.00 C 13.33 520.00 10.67 520.00 8.00 520.00 C 8.00 498.67 8.00 477.33 8.00 456.00 Z" />
<path fill="#1d2636" d=" M 40.00 456.00 C 42.67 456.00 45.33 455.99 48.00 456.00 C 48.00 477.33 48.00 498.67 48.00 520.00 C 45.33 520.00 42.67 520.00 40.00 520.00 C 40.00 504.00 40.00 488.00 40.00 472.00 C 37.33 472.00 34.67 471.99 32.00 472.00 C 32.00 469.33 32.00 466.66 32.00 464.00 C 34.67 464.00 37.33 464.00 40.00 464.00 C 40.00 461.33 40.00 458.66 40.00 456.00 Z" />
<path fill="#1d2636" d=" M 112.00 456.00 C 114.67 456.00 117.33 455.99 120.00 456.00 C 120.00 469.33 120.00 482.66 120.00 496.00 C 122.66 495.99 125.33 496.00 128.00 496.00 C 128.00 493.33 128.00 490.66 128.00 488.00 C 130.67 487.99 133.33 487.99 136.00 488.00 C 136.00 493.33 136.00 498.66 136.00 504.00 C 130.67 504.00 125.33 504.00 120.00 504.00 C 120.00 509.33 120.00 514.67 120.00 520.00 C 117.33 520.00 114.67 520.00 112.00 520.00 C 112.00 498.67 112.00 477.33 112.00 456.00 Z" />
<path fill="#1d2636" d=" M 200.00 456.00 C 202.67 455.99 205.33 456.00 208.00 456.00 C 208.00 477.33 208.00 498.67 208.00 520.00 C 205.33 520.00 202.66 520.00 200.00 520.00 C 200.00 498.67 200.00 477.33 200.00 456.00 Z" />
<path fill="#1d2636" d=" M 552.00 456.00 C 554.66 456.00 557.33 456.00 560.00 456.00 C 560.00 477.33 560.00 498.67 560.00 520.00 C 557.33 519.99 554.66 520.00 552.00 520.00 C 552.00 498.67 552.00 477.33 552.00 456.00 Z" />
<path fill="#1d2636" d=" M 632.00 456.00 C 634.66 456.00 637.33 456.00 640.00 456.00 C 640.00 469.33 640.00 482.67 640.00 496.00 C 642.66 496.00 645.33 495.99 648.00 496.00 C 647.99 493.33 648.00 490.66 648.00 488.00 C 650.66 488.00 653.33 487.99 656.00 488.00 C 656.00 493.33 656.00 498.66 656.00 504.00 C 650.66 504.00 645.33 504.00 640.00 504.00 C 640.00 509.33 640.00 514.66 640.00 520.00 C 637.33 519.99 634.66 520.00 632.00 520.00 C 632.00 498.67 632.00 477.33 632.00 456.00 Z" />
<path fill="#1d2636" d=" M 808.00 456.00 C 810.66 456.00 813.33 456.00 816.00 456.00 C 816.00 477.33 816.00 498.67 816.00 520.00 C 813.33 520.00 810.66 520.00 808.00 520.00 C 808.00 498.67 808.00 477.33 808.00 456.00 Z" />
<path fill="#1d2636" d=" M 880.00 456.00 C 882.66 455.99 885.33 456.00 888.00 456.00 C 888.00 464.00 887.99 472.00 888.00 480.00 C 896.00 480.00 904.00 480.00 912.00 480.00 C 911.99 482.66 911.99 485.33 912.00 488.00 C 904.00 488.00 896.00 488.00 888.00 488.00 C 888.00 496.00 888.00 504.00 888.00 512.00 C 896.00 512.00 904.00 512.00 912.00 512.00 C 911.99 514.66 911.99 517.33 912.00 520.00 C 901.33 520.00 890.66 520.00 880.00 520.00 C 880.00 498.67 880.00 477.33 880.00 456.00 Z" />
<path fill="#1d2636" d=" M 64.00 464.00 C 74.67 464.00 85.33 464.00 96.00 464.00 C 96.00 466.66 96.00 469.33 96.00 472.00 C 85.33 472.00 74.67 472.00 64.00 472.00 C 64.00 469.33 64.00 466.66 64.00 464.00 Z" />
<path fill="#1d2636" d=" M 216.00 464.00 C 224.00 464.00 232.00 464.00 240.00 464.00 C 240.00 466.66 240.00 469.33 240.00 472.00 C 232.00 472.00 224.00 472.00 216.00 472.00 C 216.00 469.33 216.00 466.66 216.00 464.00 Z" />
<path fill="#1d2636" d=" M 304.00 464.00 C 314.67 464.00 325.33 464.00 336.00 464.00 C 336.00 466.66 336.00 469.33 336.00 472.00 C 325.33 472.00 314.67 472.00 304.00 472.00 C 304.00 469.33 304.00 466.66 304.00 464.00 Z" />
<path fill="#1d2636" d=" M 392.00 464.00 C 394.66 464.00 397.33 463.99 400.00 464.00 C 400.00 466.66 400.00 469.33 400.00 472.00 C 397.33 472.00 394.66 472.00 392.00 472.00 C 392.00 469.33 392.00 466.66 392.00 464.00 Z" />
<path fill="#1d2636" d=" M 472.00 464.00 C 474.66 464.00 477.33 463.99 480.00 464.00 C 480.00 469.33 480.00 474.66 480.00 480.00 C 485.33 480.00 490.66 480.00 496.00 480.00 C 496.00 482.66 496.00 485.33 496.00 488.00 C 490.66 488.00 485.33 488.00 480.00 488.00 C 480.00 496.00 480.00 504.00 480.00 512.00 C 477.33 512.00 474.66 511.99 472.00 512.00 C 472.00 504.00 472.00 496.00 472.00 488.00 C 469.33 488.00 466.66 488.00 464.00 488.00 C 464.00 485.33 464.00 482.66 464.00 480.00 C 466.66 480.00 469.33 479.99 472.00 480.00 C 472.00 474.66 472.00 469.33 472.00 464.00 Z" />
<path fill="#1d2636" d=" M 680.00 464.00 C 682.66 464.00 685.33 464.00 688.00 464.00 C 687.99 469.33 688.00 474.66 688.00 480.00 C 693.33 480.00 698.66 480.00 704.00 480.00 C 704.00 482.66 703.99 485.33 704.00 488.00 C 698.66 488.00 693.33 488.00 688.00 488.00 C 687.99 496.00 688.00 504.00 688.00 512.00 C 685.33 512.00 682.66 512.00 680.00 512.00 C 680.00 504.00 680.00 496.00 680.00 488.00 C 677.33 488.00 674.66 487.99 672.00 488.00 C 671.99 485.33 671.99 482.66 672.00 480.00 C 674.66 480.00 677.33 480.00 680.00 480.00 C 680.00 474.67 679.99 469.33 680.00 464.00 Z" />
<path fill="#1d2636" d=" M 1072.00 464.00 C 1074.66 464.00 1077.33 463.99 1080.00 464.00 C 1079.99 469.33 1079.99 474.66 1080.00 480.00 C 1085.33 480.00 1090.66 480.00 1096.00 480.00 C 1095.99 482.66 1095.99 485.33 1096.00 488.00 C 1090.66 488.00 1085.33 488.00 1080.00 488.00 C 1079.99 496.00 1080.00 504.00 1080.00 512.00 C 1077.32 512.00 1074.66 512.00 1072.00 512.00 C 1072.00 504.00 1072.00 496.00 1072.00 488.00 C 1069.32 488.00 1066.66 487.99 1064.00 488.00 C 1063.99 485.33 1063.99 482.66 1064.00 480.00 C 1066.66 480.00 1069.32 479.99 1072.00 480.00 C 1072.00 474.67 1072.00 469.33 1072.00 464.00 Z" />
<path fill="#1d2636" d=" M 1192.00 464.00 C 1194.66 464.00 1197.32 463.99 1200.00 464.00 C 1199.99 466.66 1199.99 469.33 1200.00 472.00 C 1197.32 472.00 1194.66 472.00 1192.00 472.00 C 1191.99 469.33 1191.99 466.66 1192.00 464.00 Z" />
<path fill="#1d2636" d=" M 1216.00 464.00 C 1218.66 464.00 1221.32 464.00 1224.00 464.00 C 1223.99 466.66 1223.99 469.33 1224.00 472.00 C 1221.32 472.00 1218.66 472.00 1216.00 472.00 C 1215.99 469.33 1215.99 466.66 1216.00 464.00 Z" />
<path fill="#1d2636" d=" M 24.00 472.00 C 26.67 471.99 29.33 471.99 32.00 472.00 C 32.00 474.66 32.00 477.33 32.00 480.00 C 29.33 480.00 26.67 480.00 24.00 480.00 C 24.00 477.33 24.00 474.66 24.00 472.00 Z" />
<path fill="#1d2636" d=" M 64.00 480.00 C 72.00 480.00 80.00 480.00 88.00 480.00 C 88.00 482.66 88.00 485.33 88.00 488.00 C 80.00 488.00 72.00 488.00 64.00 488.00 C 64.00 485.33 64.00 482.66 64.00 480.00 Z" />
<path fill="#1d2636" d=" M 136.00 480.00 C 138.66 480.00 141.33 480.00 144.00 480.00 C 144.00 482.66 144.00 485.33 144.00 488.00 C 141.33 488.00 138.67 488.00 136.00 488.00 C 136.00 485.33 136.00 482.66 136.00 480.00 Z" />
<path fill="#1d2636" d=" M 168.00 480.00 C 176.00 480.00 184.00 480.00 192.00 480.00 C 192.00 482.66 192.00 485.33 192.00 488.00 C 184.00 487.99 176.00 488.00 168.00 488.00 C 168.00 485.33 168.00 482.66 168.00 480.00 Z" />
<path fill="#1d2636" d=" M 224.00 480.00 C 226.66 480.00 229.33 479.99 232.00 480.00 C 232.00 493.33 232.00 506.67 232.00 520.00 C 229.33 520.00 226.66 520.00 224.00 520.00 C 224.00 506.66 224.00 493.33 224.00 480.00 Z" />
<path fill="#1d2636" d=" M 256.00 480.00 C 266.67 480.00 277.33 480.00 288.00 480.00 C 288.00 496.00 288.00 512.00 288.00 528.00 C 285.33 527.99 282.66 528.00 280.00 528.00 C 280.00 525.33 280.00 522.66 280.00 520.00 C 272.00 520.00 264.00 520.00 256.00 520.00 C 256.00 517.33 256.00 514.66 256.00 512.00 C 264.00 512.00 272.00 512.00 280.00 512.00 C 280.00 504.00 280.00 496.00 280.00 488.00 C 272.00 488.00 264.00 488.00 256.00 488.00 C 256.00 485.33 256.00 482.66 256.00 480.00 Z" />
<path fill="#1d2636" d=" M 304.00 480.00 C 312.00 480.00 320.00 480.00 328.00 480.00 C 328.00 482.66 328.00 485.33 328.00 488.00 C 320.00 488.00 312.00 488.00 304.00 488.00 C 303.99 485.33 304.00 482.66 304.00 480.00 Z" />
<path fill="#1d2636" d=" M 392.00 480.00 C 394.66 480.00 397.33 479.99 400.00 480.00 C 400.00 493.33 400.00 506.66 400.00 520.00 C 397.33 520.00 394.66 520.00 392.00 520.00 C 391.99 506.67 392.01 493.33 392.00 480.00 Z" />
<path fill="#1d2636" d=" M 416.00 480.00 C 426.67 480.00 437.33 480.00 448.00 480.00 C 448.00 482.66 448.00 485.33 448.00 488.00 C 440.00 488.00 432.00 488.00 424.00 488.00 C 424.00 498.67 424.00 509.33 424.00 520.00 C 421.33 520.00 418.66 520.00 416.00 520.00 C 416.00 506.67 416.00 493.33 416.00 480.00 Z" />
<path fill="#1d2636" d=" M 512.00 480.00 C 520.00 480.00 528.00 480.00 536.00 480.00 C 536.00 482.66 535.99 485.33 536.00 488.00 C 528.00 488.00 520.00 488.00 512.00 488.00 C 512.00 485.33 511.99 482.66 512.00 480.00 Z" />
<path fill="#1d2636" d=" M 584.00 480.00 C 592.00 480.00 600.00 480.00 608.00 480.00 C 607.99 482.66 608.00 485.33 608.00 488.00 C 600.00 488.00 592.00 488.00 584.00 488.00 C 584.00 485.33 583.99 482.66 584.00 480.00 Z" />
<path fill="#1d2636" d=" M 656.00 480.00 C 658.66 480.00 661.33 479.99 664.00 480.00 C 664.00 482.66 664.00 485.33 664.00 488.00 C 661.33 488.00 658.66 488.00 656.00 488.00 C 656.00 485.33 655.99 482.66 656.00 480.00 Z" />
<path fill="#1d2636" d=" M 720.00 480.00 C 728.00 480.00 736.00 480.00 744.00 480.00 C 743.99 482.66 744.00 485.33 744.00 488.00 C 736.00 488.00 728.00 488.00 720.00 488.00 C 719.99 485.33 719.99 482.66 720.00 480.00 Z" />
<path fill="#1d2636" d=" M 832.00 480.00 C 840.00 480.00 848.00 480.00 856.00 480.00 C 855.99 482.66 855.99 485.33 856.00 488.00 C 848.00 488.00 840.00 488.00 832.00 488.00 C 831.99 485.33 831.99 482.66 832.00 480.00 Z" />
<path fill="#1d2636" d=" M 944.00 480.00 C 952.00 480.00 960.00 480.00 968.00 480.00 C 967.99 482.66 967.99 485.33 968.00 488.00 C 960.00 488.00 952.00 488.00 944.00 488.00 C 943.99 485.33 943.99 482.66 944.00 480.00 Z" />
<path fill="#1d2636" d=" M 992.00 480.00 C 994.66 479.99 997.33 480.00 1000.00 480.00 C 999.99 482.66 999.99 485.33 1000.00 488.00 C 1002.66 488.00 1005.33 488.00 1008.00 488.00 C 1007.99 490.66 1007.99 493.33 1008.00 496.00 C 1005.32 495.99 1002.66 496.00 1000.00 496.00 C 999.99 504.00 1000.00 512.00 1000.00 520.00 C 997.32 520.00 994.66 520.00 992.00 520.00 C 992.00 506.67 992.00 493.33 992.00 480.00 Z" />
<path fill="#1d2636" d=" M 1008.00 480.00 C 1010.66 480.00 1013.32 480.00 1016.00 480.00 C 1015.99 482.66 1015.99 485.33 1016.00 488.00 C 1013.33 488.00 1010.66 488.00 1008.00 488.00 C 1007.99 485.33 1007.99 482.66 1008.00 480.00 Z" />
<path fill="#1d2636" d=" M 1024.00 480.00 C 1032.00 480.00 1040.00 480.00 1048.00 480.00 C 1047.99 482.66 1047.99 485.33 1048.00 488.00 C 1040.00 488.00 1032.00 488.00 1024.00 488.00 C 1023.99 485.33 1023.99 482.66 1024.00 480.00 Z" />
<path fill="#1d2636" d=" M 1112.00 480.00 C 1120.00 480.00 1128.00 480.00 1136.00 480.00 C 1135.99 482.66 1135.99 485.33 1136.00 488.00 C 1128.00 488.00 1120.00 488.00 1112.00 488.00 C 1111.99 485.33 1111.99 482.66 1112.00 480.00 Z" />
<path fill="#1d2636" d=" M 1160.00 480.00 C 1162.66 480.00 1165.32 479.99 1168.00 480.00 C 1167.99 482.66 1167.99 485.33 1168.00 488.00 C 1170.66 488.00 1173.32 488.00 1176.00 488.00 C 1175.99 490.66 1175.99 493.33 1176.00 496.00 C 1173.32 495.99 1170.66 496.00 1168.00 496.00 C 1167.99 504.00 1168.00 512.00 1168.00 520.00 C 1165.32 520.00 1162.66 520.00 1160.00 520.00 C 1160.00 506.66 1160.00 493.33 1160.00 480.00 Z" />
<path fill="#1d2636" d=" M 1176.00 480.00 C 1178.66 479.99 1181.32 480.00 1184.00 480.00 C 1183.99 482.66 1183.99 485.33 1184.00 488.00 C 1181.32 488.00 1178.66 488.00 1176.00 488.00 C 1175.99 485.33 1175.99 482.66 1176.00 480.00 Z" />
<path fill="#1d2636" d=" M 1192.00 480.00 C 1194.66 480.00 1197.32 480.00 1200.00 480.00 C 1200.00 493.33 1200.00 506.67 1200.00 520.00 C 1197.32 520.00 1194.66 519.99 1192.00 520.00 C 1192.00 506.67 1192.00 493.33 1192.00 480.00 Z" />
<path fill="#1d2636" d=" M 1216.00 480.00 C 1218.66 479.99 1221.32 480.00 1224.00 480.00 C 1224.00 496.00 1224.00 512.00 1224.00 528.00 C 1221.32 528.00 1218.66 528.00 1216.00 528.00 C 1216.00 512.00 1216.00 496.00 1216.00 480.00 Z" />
<path fill="#1d2636" d=" M 1240.00 480.00 C 1248.00 480.00 1256.00 480.00 1264.00 480.00 C 1263.99 482.66 1263.99 485.33 1264.00 488.00 C 1256.00 488.00 1248.00 488.00 1240.00 488.00 C 1239.99 485.33 1239.99 482.66 1240.00 480.00 Z" />
<path fill="#1d2636" d=" M 88.00 488.00 C 90.67 488.00 93.33 487.99 96.00 488.00 C 96.00 498.67 96.00 509.33 96.00 520.00 C 85.33 520.00 74.67 520.00 64.00 520.00 C 64.00 517.33 64.00 514.66 64.00 512.00 C 72.00 512.00 80.00 512.00 88.00 512.00 C 88.00 509.33 88.00 506.66 88.00 504.00 C 80.00 504.00 72.00 504.00 64.00 504.00 C 64.00 501.33 64.00 498.66 64.00 496.00 C 72.00 496.00 80.00 496.00 88.00 496.00 C 88.00 493.33 88.00 490.66 88.00 488.00 Z" />
<path fill="#1d2636" d=" M 160.00 488.00 C 162.67 487.99 165.33 487.99 168.00 488.00 C 168.00 490.66 168.00 493.33 168.00 496.00 C 165.33 496.00 162.67 496.00 160.00 496.00 C 160.00 493.33 160.00 490.66 160.00 488.00 Z" />
<path fill="#1d2636" d=" M 248.00 488.00 C 250.66 487.99 253.33 488.00 256.00 488.00 C 256.00 496.00 256.00 504.00 256.00 512.00 C 253.33 512.00 250.66 512.00 248.00 512.00 C 248.00 504.00 248.00 496.00 248.00 488.00 Z" />
<path fill="#ffffff" d=" M 256.00 488.00 C 264.00 488.00 272.00 488.00 280.00 488.00 C 280.00 496.00 280.00 504.00 280.00 512.00 C 272.00 512.00 264.00 512.00 256.00 512.00 C 256.00 504.00 256.00 496.00 256.00 488.00 Z" />
<path fill="#1d2636" d=" M 328.00 488.00 C 330.66 488.00 333.33 487.99 336.00 488.00 C 336.00 498.67 336.00 509.33 336.00 520.00 C 325.33 520.00 314.67 520.00 304.00 520.00 C 304.00 517.33 304.00 514.66 304.00 512.00 C 312.00 512.00 320.00 512.00 328.00 512.00 C 327.99 509.33 327.99 506.66 328.00 504.00 C 320.00 504.00 312.00 504.00 304.00 504.00 C 304.00 501.33 304.00 498.66 304.00 496.00 C 312.00 496.00 320.00 496.00 328.00 496.00 C 328.00 493.33 328.00 490.66 328.00 488.00 Z" />
<path fill="#1d2636" d=" M 448.00 488.00 C 450.66 488.00 453.33 487.99 456.00 488.00 C 456.00 498.67 456.00 509.33 456.00 520.00 C 453.33 520.00 450.66 520.00 448.00 520.00 C 448.00 509.33 448.00 498.67 448.00 488.00 Z" />
<path fill="#1d2636" d=" M 504.00 488.00 C 506.66 487.99 509.33 488.00 512.00 488.00 C 512.00 490.66 512.00 493.33 512.00 496.00 C 520.00 496.00 528.00 496.00 536.00 496.00 C 535.99 493.33 535.99 490.66 536.00 488.00 C 538.66 488.00 541.33 487.99 544.00 488.00 C 544.00 493.33 544.00 498.66 544.00 504.00 C 533.33 504.00 522.67 503.99 512.00 504.00 C 512.00 506.66 511.99 509.33 512.00 512.00 C 509.33 512.00 506.66 512.00 504.00 512.00 C 504.00 504.00 504.00 496.00 504.00 488.00 Z" />
<path fill="#ffffff" d=" M 512.00 488.00 C 520.00 488.00 528.00 488.00 536.00 488.00 C 535.99 490.66 535.99 493.33 536.00 496.00 C 528.00 496.00 520.00 496.00 512.00 496.00 C 512.00 493.33 512.00 490.66 512.00 488.00 Z" />
<path fill="#1d2636" d=" M 576.00 488.00 C 578.66 488.00 581.33 488.00 584.00 488.00 C 584.00 490.66 584.00 493.33 584.00 496.00 C 592.00 496.00 600.00 496.00 608.00 496.00 C 607.99 493.33 607.99 490.66 608.00 488.00 C 610.66 488.00 613.33 487.99 616.00 488.00 C 615.99 493.33 616.00 498.66 616.00 504.00 C 605.33 504.00 594.67 503.99 584.00 504.00 C 583.99 506.66 583.99 509.33 584.00 512.00 C 581.33 512.00 578.66 512.00 576.00 512.00 C 576.00 504.00 576.00 496.00 576.00 488.00 Z" />
<path fill="#ffffff" d=" M 584.00 488.00 C 592.00 488.00 600.00 488.00 608.00 488.00 C 607.99 490.66 607.99 493.33 608.00 496.00 C 600.00 496.00 592.00 496.00 584.00 496.00 C 584.00 493.33 584.00 490.66 584.00 488.00 Z" />
<path fill="#1d2636" d=" M 744.00 488.00 C 746.66 487.99 749.33 488.00 752.00 488.00 C 752.00 498.67 752.00 509.33 752.00 520.00 C 741.33 519.99 730.66 520.00 720.00 520.00 C 719.99 517.33 719.99 514.66 720.00 512.00 C 728.00 512.00 736.00 512.00 744.00 512.00 C 743.99 509.33 743.99 506.66 744.00 504.00 C 736.00 504.00 728.00 504.00 720.00 504.00 C 719.99 501.33 719.99 498.66 720.00 496.00 C 728.00 496.00 736.00 496.00 744.00 496.00 C 743.99 493.33 744.00 490.66 744.00 488.00 Z" />
<path fill="#1d2636" d=" M 856.00 488.00 C 858.66 487.99 861.33 487.99 864.00 488.00 C 864.00 498.67 864.00 509.33 864.00 520.00 C 853.33 520.00 842.66 520.00 832.00 520.00 C 831.99 517.33 831.99 514.66 832.00 512.00 C 840.00 512.00 848.00 512.00 856.00 512.00 C 855.99 509.33 855.99 506.66 856.00 504.00 C 848.00 504.00 840.00 504.00 832.00 504.00 C 831.99 501.33 831.99 498.66 832.00 496.00 C 840.00 496.00 848.00 496.00 856.00 496.00 C 855.99 493.33 856.00 490.66 856.00 488.00 Z" />
<path fill="#ffffff" d=" M 888.00 488.00 C 896.00 488.00 904.00 488.00 912.00 488.00 C 912.00 496.00 912.00 504.00 912.00 512.00 C 904.00 512.00 896.00 512.00 888.00 512.00 C 888.00 504.00 888.00 496.00 888.00 488.00 Z" />
<path fill="#1d2636" d=" M 912.00 488.00 C 914.66 488.00 917.33 487.99 920.00 488.00 C 919.99 496.00 920.00 504.00 920.00 512.00 C 917.33 512.00 914.66 512.00 912.00 512.00 C 912.00 504.00 912.00 496.00 912.00 488.00 Z" />
<path fill="#1d2636" d=" M 936.00 488.00 C 938.66 487.99 941.33 488.00 944.00 488.00 C 944.00 496.00 944.00 504.00 944.00 512.00 C 941.33 512.00 938.66 512.00 936.00 512.00 C 936.00 504.00 936.00 496.00 936.00 488.00 Z" />
<path fill="#ffffff" d=" M 944.00 488.00 C 952.00 488.00 960.00 488.00 968.00 488.00 C 968.00 496.00 968.00 504.00 968.00 512.00 C 960.00 512.00 952.00 512.00 944.00 512.00 C 944.00 504.00 944.00 496.00 944.00 488.00 Z" />
<path fill="#1d2636" d=" M 968.00 488.00 C 970.66 487.99 973.33 488.00 976.00 488.00 C 975.99 496.00 976.00 504.00 976.00 512.00 C 973.33 512.00 970.66 512.00 968.00 512.00 C 968.00 504.00 968.00 496.00 968.00 488.00 Z" />
<path fill="#1d2636" d=" M 1048.00 488.00 C 1050.66 488.00 1053.32 487.99 1056.00 488.00 C 1055.99 498.67 1056.00 509.33 1056.00 520.00 C 1045.33 520.00 1034.67 520.00 1024.00 520.00 C 1023.99 517.33 1023.99 514.66 1024.00 512.00 C 1032.00 512.00 1040.00 512.00 1048.00 512.00 C 1047.99 509.33 1047.99 506.66 1048.00 504.00 C 1040.00 504.00 1032.00 504.00 1024.00 504.00 C 1023.99 501.33 1023.99 498.66 1024.00 496.00 C 1032.00 496.00 1040.00 496.00 1048.00 496.00 C 1047.99 493.33 1047.99 490.66 1048.00 488.00 Z" />
<path fill="#1d2636" d=" M 1104.00 488.00 C 1106.66 487.99 1109.32 488.00 1112.00 488.00 C 1112.00 496.00 1112.00 504.00 1112.00 512.00 C 1109.32 512.00 1106.66 512.00 1104.00 512.00 C 1104.00 504.00 1104.00 496.00 1104.00 488.00 Z" />
<path fill="#ffffff" d=" M 1112.00 488.00 C 1120.00 488.00 1128.00 488.00 1136.00 488.00 C 1136.00 496.00 1136.00 504.00 1136.00 512.00 C 1128.00 512.00 1120.00 512.00 1112.00 512.00 C 1112.00 504.00 1112.00 496.00 1112.00 488.00 Z" />
<path fill="#1d2636" d=" M 1136.00 488.00 C 1138.66 488.00 1141.32 487.99 1144.00 488.00 C 1143.99 496.00 1144.00 504.00 1144.00 512.00 C 1141.32 512.00 1138.66 512.00 1136.00 512.00 C 1136.00 504.00 1136.00 496.00 1136.00 488.00 Z" />
<path fill="#1d2636" d=" M 1264.00 488.00 C 1266.66 487.99 1269.32 487.99 1272.00 488.00 C 1272.00 498.67 1272.00 509.33 1272.00 520.00 C 1261.33 520.00 1250.66 520.00 1240.00 520.00 C 1239.99 517.33 1239.99 514.66 1240.00 512.00 C 1248.00 512.00 1256.00 512.00 1264.00 512.00 C 1263.99 509.33 1263.99 506.66 1264.00 504.00 C 1256.00 504.00 1248.00 504.00 1240.00 504.00 C 1239.99 501.33 1239.99 498.66 1240.00 496.00 C 1248.00 496.00 1256.00 496.00 1264.00 496.00 C 1263.99 493.33 1263.99 490.66 1264.00 488.00 Z" />
<path fill="#1d2636" d=" M 168.00 496.00 C 173.33 496.00 178.67 496.00 184.00 496.00 C 184.00 498.66 184.00 501.33 184.00 504.00 C 178.67 504.00 173.33 504.00 168.00 504.00 C 168.00 501.33 168.00 498.66 168.00 496.00 Z" />
<path fill="#1d2636" d=" M 56.00 504.00 C 58.67 503.99 61.33 504.00 64.00 504.00 C 64.00 506.66 64.00 509.33 64.00 512.00 C 61.33 512.00 58.67 512.00 56.00 512.00 C 56.00 509.33 56.00 506.66 56.00 504.00 Z" />
<path fill="#ffffff" d=" M 64.00 504.00 C 72.00 504.00 80.00 504.00 88.00 504.00 C 88.00 506.66 88.00 509.33 88.00 512.00 C 80.00 512.00 72.00 512.00 64.00 512.00 C 64.00 509.33 64.00 506.66 64.00 504.00 Z" />
<path fill="#1d2636" d=" M 136.00 504.00 C 138.67 503.99 141.33 504.00 144.00 504.00 C 144.00 506.66 144.00 509.33 144.00 512.00 C 141.33 512.00 138.66 512.00 136.00 512.00 C 136.00 509.33 136.00 506.66 136.00 504.00 Z" />
<path fill="#1d2636" d=" M 184.00 504.00 C 186.66 503.99 189.33 504.00 192.00 504.00 C 192.00 506.66 192.00 509.33 192.00 512.00 C 189.33 512.00 186.66 512.00 184.00 512.00 C 184.00 509.33 184.00 506.66 184.00 504.00 Z" />
<path fill="#1d2636" d=" M 296.00 504.00 C 298.66 503.99 301.33 504.00 304.00 504.00 C 304.00 506.66 304.00 509.33 304.00 512.00 C 301.33 512.00 298.66 512.00 296.00 512.00 C 296.00 509.33 296.00 506.66 296.00 504.00 Z" />
<path fill="#ffffff" d=" M 304.00 504.00 C 312.00 504.00 320.00 504.00 328.00 504.00 C 327.99 506.66 327.99 509.33 328.00 512.00 C 320.00 512.00 312.00 512.00 304.00 512.00 C 304.00 509.33 304.00 506.66 304.00 504.00 Z" />
<path fill="#1d2636" d=" M 656.00 504.00 C 658.66 504.00 661.33 504.00 664.00 504.00 C 664.00 506.66 663.99 509.33 664.00 512.00 C 661.33 512.00 658.66 512.00 656.00 512.00 C 656.00 509.33 655.99 506.66 656.00 504.00 Z" />
<path fill="#1d2636" d=" M 712.00 504.00 C 714.66 503.99 717.33 504.00 720.00 504.00 C 719.99 506.66 719.99 509.33 720.00 512.00 C 717.33 512.00 714.66 512.00 712.00 512.00 C 711.99 509.33 711.99 506.66 712.00 504.00 Z" />
<path fill="#ffffff" d=" M 720.00 504.00 C 728.00 504.00 736.00 504.00 744.00 504.00 C 743.99 506.66 743.99 509.33 744.00 512.00 C 736.00 512.00 728.00 512.00 720.00 512.00 C 719.99 509.33 719.99 506.66 720.00 504.00 Z" />
<path fill="#1d2636" d=" M 824.00 504.00 C 826.66 503.99 829.33 504.00 832.00 504.00 C 831.99 506.66 831.99 509.33 832.00 512.00 C 829.33 512.00 826.66 512.00 824.00 512.00 C 823.99 509.33 823.99 506.66 824.00 504.00 Z" />
<path fill="#ffffff" d=" M 832.00 504.00 C 840.00 504.00 848.00 504.00 856.00 504.00 C 855.99 506.66 855.99 509.33 856.00 512.00 C 848.00 512.00 840.00 512.00 832.00 512.00 C 831.99 509.33 831.99 506.66 832.00 504.00 Z" />
<path fill="#1d2636" d=" M 1016.00 504.00 C 1018.66 503.99 1021.33 504.00 1024.00 504.00 C 1023.99 506.66 1023.99 509.33 1024.00 512.00 C 1021.33 511.99 1018.66 512.00 1016.00 512.00 C 1015.99 509.33 1015.99 506.66 1016.00 504.00 Z" />
<path fill="#ffffff" d=" M 1024.00 504.00 C 1032.00 504.00 1040.00 504.00 1048.00 504.00 C 1047.99 506.66 1047.99 509.33 1048.00 512.00 C 1040.00 512.00 1032.00 512.00 1024.00 512.00 C 1023.99 509.33 1023.99 506.66 1024.00 504.00 Z" />
<path fill="#1d2636" d=" M 1232.00 504.00 C 1234.66 504.00 1237.32 503.99 1240.00 504.00 C 1239.99 506.66 1239.99 509.33 1240.00 512.00 C 1237.32 512.00 1234.66 512.00 1232.00 512.00 C 1231.99 509.33 1231.99 506.66 1232.00 504.00 Z" />
<path fill="#ffffff" d=" M 1240.00 504.00 C 1248.00 504.00 1256.00 504.00 1264.00 504.00 C 1263.99 506.66 1263.99 509.33 1264.00 512.00 C 1256.00 512.00 1248.00 512.00 1240.00 512.00 C 1239.99 509.33 1239.99 506.66 1240.00 504.00 Z" />
<path fill="#1d2636" d=" M 144.00 512.00 C 146.67 511.99 149.33 511.99 152.00 512.00 C 152.00 514.66 152.00 517.33 152.00 520.00 C 149.33 520.00 146.67 520.00 144.00 520.00 C 144.00 517.33 144.00 514.66 144.00 512.00 Z" />
<path fill="#1d2636" d=" M 160.00 512.00 C 168.00 512.00 176.00 512.00 184.00 512.00 C 184.00 514.66 184.00 517.33 184.00 520.00 C 176.00 520.00 168.00 520.00 160.00 520.00 C 160.00 517.33 160.00 514.66 160.00 512.00 Z" />
<path fill="#1d2636" d=" M 480.00 512.00 C 485.33 512.00 490.66 512.00 496.00 512.00 C 496.00 514.66 496.00 517.33 496.00 520.00 C 490.66 520.00 485.33 519.99 480.00 520.00 C 480.00 517.33 479.99 514.66 480.00 512.00 Z" />
<path fill="#1d2636" d=" M 512.00 512.00 C 522.67 512.00 533.33 512.00 544.00 512.00 C 544.00 514.66 543.99 517.33 544.00 520.00 C 533.33 520.00 522.67 520.00 512.00 520.00 C 512.00 517.33 511.99 514.66 512.00 512.00 Z" />
<path fill="#1d2636" d=" M 584.00 512.00 C 594.67 512.00 605.33 512.00 616.00 512.00 C 616.00 514.66 616.00 517.33 616.00 520.00 C 605.33 520.00 594.67 520.00 584.00 520.00 C 584.00 517.33 583.99 514.66 584.00 512.00 Z" />
<path fill="#1d2636" d=" M 664.00 512.00 C 666.66 512.00 669.33 512.00 672.00 512.00 C 672.00 514.66 671.99 517.33 672.00 520.00 C 669.33 520.00 666.66 520.00 664.00 520.00 C 663.99 517.33 663.99 514.66 664.00 512.00 Z" />
<path fill="#1d2636" d=" M 688.00 512.00 C 693.33 512.00 698.66 512.00 704.00 512.00 C 704.00 514.66 704.00 517.33 704.00 520.00 C 698.66 519.99 693.33 520.00 688.00 520.00 C 687.99 517.33 688.00 514.66 688.00 512.00 Z" />
<path fill="#1d2636" d=" M 944.00 512.00 C 952.00 512.00 960.00 512.00 968.00 512.00 C 967.99 514.66 967.99 517.33 968.00 520.00 C 960.00 520.00 952.00 520.00 944.00 520.00 C 943.99 517.33 943.99 514.66 944.00 512.00 Z" />
<path fill="#1d2636" d=" M 1080.00 512.00 C 1085.33 512.00 1090.66 512.00 1096.00 512.00 C 1095.99 514.66 1095.99 517.33 1096.00 520.00 C 1090.66 520.00 1085.33 520.00 1080.00 520.00 C 1079.99 517.33 1079.99 514.66 1080.00 512.00 Z" />
<path fill="#1d2636" d=" M 1112.00 512.00 C 1120.00 512.00 1128.00 512.00 1136.00 512.00 C 1135.99 514.66 1135.99 517.33 1136.00 520.00 C 1128.00 520.00 1120.00 520.00 1112.00 520.00 C 1111.99 517.33 1111.99 514.66 1112.00 512.00 Z" />
<path fill="#1d2636" d=" M 256.00 528.00 C 264.00 528.00 272.00 528.00 280.00 528.00 C 280.00 530.66 280.00 533.33 280.00 536.00 C 272.00 536.00 264.00 536.00 256.00 536.00 C 256.00 533.33 256.00 530.66 256.00 528.00 Z" />
<path fill="#1d2636" d=" M 1200.00 528.00 C 1205.33 528.00 1210.66 528.00 1216.00 528.00 C 1215.99 530.66 1215.99 533.33 1216.00 536.00 C 1210.66 536.00 1205.33 536.00 1200.00 536.00 C 1199.99 533.33 1199.99 530.66 1200.00 528.00 Z" />
<path fill="#1d2636" d=" M 1048.00 560.00 C 1050.66 560.00 1053.32 559.99 1056.00 560.00 C 1056.00 578.67 1056.00 597.33 1056.00 616.00 C 1066.66 616.00 1077.33 616.00 1088.00 616.00 C 1087.99 618.66 1087.99 621.33 1088.00 624.00 C 1074.66 623.99 1061.33 624.00 1048.00 624.00 C 1048.00 602.67 1048.00 581.33 1048.00 560.00 Z" />
<path fill="#1d2636" d=" M 1096.00 560.00 C 1098.66 559.99 1101.32 559.99 1104.00 560.00 C 1104.00 578.67 1103.99 597.33 1104.00 616.00 C 1101.32 616.00 1098.66 616.00 1096.00 616.00 C 1096.00 597.33 1096.00 578.67 1096.00 560.00 Z" />
<path fill="#1d2636" d=" M 1128.00 560.00 C 1130.66 559.99 1133.32 560.00 1136.00 560.00 C 1136.00 578.67 1136.00 597.33 1136.00 616.00 C 1133.32 615.99 1130.66 616.00 1128.00 616.00 C 1128.00 597.33 1128.00 578.67 1128.00 560.00 Z" />
<path fill="#1d2636" d=" M 1184.00 560.00 C 1186.66 560.00 1189.32 559.99 1192.00 560.00 C 1191.99 562.66 1191.99 565.33 1192.00 568.00 C 1194.66 567.99 1197.32 568.00 1200.00 568.00 C 1199.99 570.66 1199.99 573.33 1200.00 576.00 C 1197.32 575.99 1194.66 576.00 1192.00 576.00 C 1192.00 592.00 1192.00 608.00 1192.00 624.00 C 1189.32 624.00 1186.66 624.00 1184.00 624.00 C 1184.00 602.67 1184.00 581.33 1184.00 560.00 Z" />
<path fill="#1d2636" d=" M 1216.00 560.00 C 1218.66 559.99 1221.32 559.99 1224.00 560.00 C 1224.00 581.33 1224.00 602.67 1224.00 624.00 C 1221.32 624.00 1218.66 624.00 1216.00 624.00 C 1216.00 608.00 1216.00 592.00 1216.00 576.00 C 1213.32 576.00 1210.66 575.99 1208.00 576.00 C 1207.99 573.33 1207.99 570.66 1208.00 568.00 C 1210.65 568.00 1213.32 567.99 1216.00 568.00 C 1215.99 565.33 1215.99 562.66 1216.00 560.00 Z" />
<path fill="#1d2636" d=" M 1240.00 560.00 C 1242.66 559.99 1245.32 559.99 1248.00 560.00 C 1248.00 581.33 1248.00 602.66 1248.00 624.00 C 1245.32 624.00 1242.66 624.00 1240.00 624.00 C 1240.00 602.66 1240.00 581.33 1240.00 560.00 Z" />
<path fill="#1d2636" d=" M 1264.00 560.00 C 1266.66 559.99 1269.32 560.00 1272.00 560.00 C 1272.00 581.33 1272.00 602.67 1272.00 624.00 C 1269.32 624.00 1266.66 624.00 1264.00 624.00 C 1264.00 602.67 1264.00 581.33 1264.00 560.00 Z" />
<path fill="#1d2636" d=" M 1200.00 576.00 C 1202.66 576.00 1205.32 575.99 1208.00 576.00 C 1207.99 578.66 1207.99 581.33 1208.00 584.00 C 1205.32 584.00 1202.66 583.99 1200.00 584.00 C 1199.99 581.33 1199.99 578.66 1200.00 576.00 Z" />
<path fill="#1d2636" d=" M 1104.00 616.00 C 1112.00 616.00 1120.00 616.00 1128.00 616.00 C 1127.99 618.66 1127.99 621.33 1128.00 624.00 C 1120.00 624.00 1112.00 624.00 1104.00 624.00 C 1103.99 621.33 1103.99 618.66 1104.00 616.00 Z" />
</svg>
